HIERARCHY
ROOT joint_Root
{
	OFFSET 0.0 0.0 0.0
	CHANNELS 6 Xposition Yposition Zposition Zrotation Xrotation Yrotation 
	JOINT Hips
	{
		OFFSET -17.1583 93.1646 452.98
		CHANNELS 6 Xposition Yposition Zposition Zrotation Xrotation Yrotation 
		JOINT Spine
		{
			OFFSET 15.7357 0.0 0.0
			CHANNELS 6 Xposition Yposition Zposition Zrotation Xrotation Yrotation 
			JOINT Chest
			{
				OFFSET 8.98455 -0.406207 0.0
				CHANNELS 6 Xposition Yposition Zposition Zrotation Xrotation Yrotation 
				JOINT Neck
				{
					OFFSET 16.3773 0.0 0.0
					CHANNELS 6 Xposition Yposition Zposition Zrotation Xrotation Yrotation 
					JOINT Head
					{
						OFFSET 6.45672 0.0 0.0
						CHANNELS 6 Xposition Yposition Zposition Zrotation Xrotation Yrotation 
						End Site
						{
							OFFSET 0.0 0.0 0.0
						}
					}
				}
				JOINT Shoulder_L
				{
					OFFSET 12.9942 -0.242716 4.98039
					CHANNELS 6 Xposition Yposition Zposition Zrotation Xrotation Yrotation 
					JOINT UpperArm_L
					{
						OFFSET 5.34809 0.0 0.0
						CHANNELS 6 Xposition Yposition Zposition Zrotation Xrotation Yrotation 
						JOINT LowerArm_L
						{
							OFFSET 24.3286 1.87007e-05 0.0
							CHANNELS 6 Xposition Yposition Zposition Zrotation Xrotation Yrotation 
							JOINT Hand_L
							{
								OFFSET 22.2916 0.0 0.0
								CHANNELS 6 Xposition Yposition Zposition Zrotation Xrotation Yrotation 
								End Site
								{
									OFFSET 0.0 0.0 0.0
								}
							}
						}
					}
				}
				JOINT Shoulder_R
				{
					OFFSET 12.9945 -0.242716 -4.98039
					CHANNELS 6 Xposition Yposition Zposition Zrotation Xrotation Yrotation 
					JOINT UpperArm_R
					{
						OFFSET -5.34813 0.0 0.0
						CHANNELS 6 Xposition Yposition Zposition Zrotation Xrotation Yrotation 
						JOINT LowerArm_R
						{
							OFFSET -24.3289 0.000322201 0.0
							CHANNELS 6 Xposition Yposition Zposition Zrotation Xrotation Yrotation 
							JOINT Hand_R
							{
								OFFSET -22.2915 -0.000108084 0.0
								CHANNELS 6 Xposition Yposition Zposition Zrotation Xrotation Yrotation 
								End Site
								{
									OFFSET 0.0 0.0 0.0
								}
							}
						}
					}
				}
			}
		}
		JOINT UpperLeg_L
		{
			OFFSET -2.19248 -6.46944 0.0
			CHANNELS 6 Xposition Yposition Zposition Zrotation Xrotation Yrotation 
			JOINT LowerLeg_L
			{
				OFFSET 39.0811 0.0 -1.23785e-05
				CHANNELS 6 Xposition Yposition Zposition Zrotation Xrotation Yrotation 
				JOINT Foot_L
				{
					OFFSET 40.9854 0.0 -1.26872e-05
					CHANNELS 6 Xposition Yposition Zposition Zrotation Xrotation Yrotation 
					JOINT Toes_L
					{
						OFFSET 11.7543 0.0 0.0
						CHANNELS 6 Xposition Yposition Zposition Zrotation Xrotation Yrotation 
						End Site
						{
							OFFSET 0.0 0.0 0.0
						}
					}
				}
			}
		}
		JOINT UpperLeg_R
		{
			OFFSET -2.19251 6.46944 0.0
			CHANNELS 6 Xposition Yposition Zposition Zrotation Xrotation Yrotation 
			JOINT LowerLeg_R
			{
				OFFSET -39.0811 -0.00228153 -0.0401928
				CHANNELS 6 Xposition Yposition Zposition Zrotation Xrotation Yrotation 
				JOINT Foot_R
				{
					OFFSET -40.9854 0.0 0.0
					CHANNELS 6 Xposition Yposition Zposition Zrotation Xrotation Yrotation 
					JOINT Toes_R
					{
						OFFSET -11.7543 0.0 0.0
						CHANNELS 6 Xposition Yposition Zposition Zrotation Xrotation Yrotation 
						End Site
						{
							OFFSET 0.0 0.0 0.0
						}
					}
				}
			}
		}
	}
}
MOTION
Frames:	4
Frame Time:	0.0333333
0.000000 0.000000 0.000000 0.000000 0.000000 -0.000000 0.240316 88.503200 24.250000 -84.804800 -1.903980 179.182000 15.735700 0.000005 -0.000001 41.704900 86.113300 -38.557300 8.984550 -0.406207 -0.000000 -2.424910 -6.081280 6.171000 16.377300 -0.000001 -0.000001 2.722160 2.357620 -2.711860 6.456720 -0.000001 -0.000000 2.622620 4.293040 -3.824280 12.994200 -0.242716 4.980390 -93.084500 9.111010 -71.206300 5.348090 -0.000007 -0.000001 -71.904900 -9.800070 3.659300 24.328600 0.000019 0.000005 18.154400 26.414600 -36.387200 22.291600 -0.000001 0.000005 50.473700 4.403010 18.175100 12.994500 -0.242716 -4.980390 88.789700 3.234880 -69.475200 -5.348130 -0.000001 -0.000004 -65.558700 -4.013380 4.482420 -24.328900 0.000322 -0.000009 0.604516 3.974610 -8.675000 -22.291500 -0.000108 -0.000004 48.744900 5.410620 -3.287370 -2.192480 -6.469440 -0.000000 -170.666000 -2.556170 0.567137 39.081100 -0.000007 -0.000012 0.173587 -0.153073 48.592900 40.985400 -0.000006 -0.000013 -11.462200 17.119300 -30.490800 11.754300 -0.000000 0.000003 -0.012003 -0.118050 -21.389200 -2.192510 6.469440 -0.000001 -170.993000 -4.292410 150.493000 -39.081100 -0.002282 -0.040193 0.131847 -0.176888 36.008900 -40.985400 0.000008 0.000006 0.892797 -8.459310 -65.083400 -11.754300 -0.000006 -0.000006 -0.010332 0.273770 -5.450170
0.000000 0.000000 0.000000 0.000000 0.000000 -0.000000 0.617045 88.515200 19.638100 -83.875600 -3.262240 -179.176000 15.735700 0.000005 -0.000001 49.372400 85.782300 -45.945400 8.984550 -0.406207 -0.000000 -1.183020 -5.758930 6.796770 16.377300 -0.000001 -0.000001 2.637460 1.657430 -2.267150 6.456720 -0.000001 -0.000000 2.576390 3.324690 -3.756260 12.994200 -0.242716 4.980390 -93.120800 9.158210 -71.090500 5.348090 -0.000007 -0.000001 -71.828100 -9.226240 4.513790 24.328600 0.000019 0.000005 14.864000 26.878700 -30.414300 22.291600 -0.000001 0.000005 49.751000 4.403860 18.159900 12.994500 -0.242716 -4.980390 88.748900 3.325640 -69.370100 -5.348130 -0.000001 -0.000004 -67.771900 -0.054227 1.648950 -24.328900 0.000322 -0.000009 0.577397 2.845670 -11.499300 -22.291500 -0.000108 -0.000004 47.414400 5.435390 -4.126480 -2.192480 -6.469440 -0.000000 -169.449000 0.156319 -6.195160 39.081100 -0.000007 -0.000012 0.282456 -0.172312 58.614300 40.985400 -0.000006 -0.000013 -15.787000 12.493600 -21.437000 11.754300 -0.000000 0.000003 0.002120 0.051595 -14.483900 -2.192510 6.469440 -0.000001 -169.215000 -1.845440 154.250000 -39.081100 -0.002282 -0.040193 0.190330 -0.237160 38.262900 -40.985400 0.000008 0.000006 1.342150 -7.848220 -69.440700 -11.754300 -0.000006 -0.000006 -0.010662 0.276188 -5.351210
0.000000 0.000000 0.000000 0.000000 0.000000 -0.000000 0.791590 89.107000 15.237600 -83.797200 -4.403070 -178.087000 15.735700 0.000005 -0.000001 56.790800 85.742500 -53.477900 8.984550 -0.406207 -0.000000 -0.490209 -4.901140 6.604670 16.377300 -0.000001 -0.000001 2.846670 0.804437 -1.605350 6.456720 -0.000001 -0.000000 2.791190 1.855980 -3.252340 12.994200 -0.242716 4.980390 -92.951700 8.634660 -71.045300 5.348090 -0.000007 -0.000001 -71.250200 -9.417010 5.635700 24.328600 0.000019 0.000005 13.090400 27.314000 -26.873300 22.291600 -0.000001 0.000005 48.351400 4.430630 17.730700 12.994500 -0.242716 -4.980390 88.666900 3.507860 -69.176800 -5.348130 -0.000001 -0.000004 -69.050800 4.185680 -0.008548 -24.328900 0.000322 -0.000009 0.938809 3.090940 -16.925500 -22.291500 -0.000108 -0.000004 47.188000 5.447390 -4.549450 -2.192480 -6.469440 -0.000000 -169.487000 2.112150 -12.378500 39.081100 -0.000007 -0.000012 0.228120 -0.102258 65.854000 40.985400 -0.000006 -0.000013 -14.094900 15.381400 -28.085100 11.754300 -0.000000 0.000003 0.002056 0.048910 -14.592800 -2.192510 6.469440 -0.000001 -168.822000 0.072573 159.044000 -39.081100 -0.002282 -0.040193 0.157103 -0.202348 37.240900 -40.985400 0.000008 0.000006 0.891090 -7.326580 -72.110900 -11.754300 -0.000006 -0.000006 -0.010985 0.278524 -5.255630
0.000000 0.000000 0.000000 0.000000 0.000000 -0.000000 0.655695 89.953700 11.008800 -84.843700 -4.516670 -177.155000 15.735700 0.000005 -0.000001 64.926200 85.655700 -62.165200 8.984550 -0.406207 -0.000000 0.204554 -3.863140 5.526900 16.377300 -0.000001 -0.000001 3.154980 0.353876 -1.029390 6.456720 -0.000001 -0.000000 3.059430 0.765261 -2.497100 12.994200 -0.242716 4.980390 -92.773200 8.001400 -70.812300 5.348090 -0.000007 -0.000001 -69.580500 -10.851400 7.211960 24.328600 0.000019 0.000005 12.108400 27.137800 -25.189000 22.291600 -0.000001 0.000005 47.628100 4.440660 17.570400 12.994500 -0.242716 -4.980390 88.682400 3.474990 -69.219700 -5.348130 -0.000001 -0.000004 -69.795500 8.280280 -1.625540 -24.328900 0.000322 -0.000009 1.343460 3.061980 -23.700900 -22.291500 -0.000108 -0.000004 46.585200 5.458030 -4.925890 -2.192480 -6.469440 -0.000000 -171.131000 3.260790 -17.427800 39.081100 -0.000007 -0.000012 0.169543 -0.065662 68.827400 40.985400 -0.000006 -0.000013 -11.960700 15.657700 -34.584700 11.754300 -0.000000 0.000003 0.002101 0.050760 -14.517800 -2.192510 6.469440 -0.000001 -169.983000 0.399132 164.567000 -39.081100 -0.002282 -0.040193 0.066437 -0.091521 34.604100 -40.985400 0.000008 0.000006 -0.646876 -6.906840 -73.645700 -11.754300 -0.000006 -0.000006 -0.010489 0.274925 -5.402890
